HIERARCHY
ROOT SpineBase
{
  OFFSET 0.000000 0.000000 0.000000
  CHANNELS 6 Xposition Yposition Zposition Zrotation Xrotation Yrotation
  JOINT SpineMid
  {
    OFFSET 0.000000 30.759671 0.000000
    CHANNELS 3 Zrotation Xrotation Yrotation
    JOINT SpineShoulder
    {
      OFFSET -0.171790 22.843305 -0.843767
      CHANNELS 3 Zrotation Xrotation Yrotation
      JOINT Neck
      {
        OFFSET -0.110880 7.549549 -0.636954
        CHANNELS 3 Zrotation Xrotation Yrotation
        JOINT Head
        {
          OFFSET -4.569397 13.064086 1.743014
          CHANNELS 3 Zrotation Xrotation Yrotation
          End Site
          {
            OFFSET 0 0 0
          }
        }
      }
      JOINT ShoulderLeft
      {
        OFFSET -11.547232 -4.545248 10.394979
        CHANNELS 3 Zrotation Xrotation Yrotation
        JOINT ElbowLeft
        {
          OFFSET -2.908525 -26.525623 7.094759
          CHANNELS 3 Zrotation Xrotation Yrotation
          JOINT WristLeft
          {
            OFFSET 0.797119 -25.252480 0.397468
            CHANNELS 3 Zrotation Xrotation Yrotation
            JOINT HandLeft
            {
              OFFSET 0.957864 -7.063935 0.170337
              CHANNELS 3 Zrotation Xrotation Yrotation
              JOINT HandTipLeft
              {
                OFFSET 1.578928 -7.253104 -0.135076
                CHANNELS 3 Zrotation Xrotation Yrotation
                End Site
                {
                  OFFSET 0 0 0
                }
              }
              JOINT ThumbLeft
              {
                OFFSET 2.230073 1.439277 -4.233238
                CHANNELS 3 Zrotation Xrotation Yrotation
                End Site
                {
                  OFFSET 0 0 0
                }
              }
            }
          }
        }
      }
      JOINT ShoulderRight
      {
        OFFSET 10.065355 -4.830376 -11.736247
        CHANNELS 3 Zrotation Xrotation Yrotation
        JOINT ElbowRight
        {
          OFFSET 6.602239 -25.318195 -6.326907
          CHANNELS 3 Zrotation Xrotation Yrotation
          JOINT WristRight
          {
            OFFSET -0.556982 -20.348687 -7.931095
            CHANNELS 3 Zrotation Xrotation Yrotation
            JOINT HandRight
            {
              OFFSET -1.736481 -7.762732 1.140484
              CHANNELS 3 Zrotation Xrotation Yrotation
              JOINT HandTipRight
              {
                OFFSET -0.897508 -7.692444 -0.004974
                CHANNELS 3 Zrotation Xrotation Yrotation
                End Site
                {
                  OFFSET 0 0 0
                }
              }
              JOINT ThumbRight
              {
                OFFSET -4.391875 1.177162 5.582131
                CHANNELS 3 Zrotation Xrotation Yrotation
                End Site
                {
                  OFFSET 0 0 0
                }
              }
            }
          }
        }
      }
    }
  }
  JOINT HipLeft
  {
    OFFSET -4.873781 0.670467 0.208854
    CHANNELS 3 Zrotation Xrotation Yrotation
    JOINT KneeLeft
    {
      OFFSET 4.335730 -41.403163 6.751602
      CHANNELS 3 Zrotation Xrotation Yrotation
      JOINT AnkleLeft
      {
        OFFSET 12.659706 -34.168340 9.660695
        CHANNELS 3 Zrotation Xrotation Yrotation
        JOINT FootLeft
        {
          OFFSET -4.146918 -7.415751 -2.845108
          CHANNELS 3 Zrotation Xrotation Yrotation
          End Site
          {
            OFFSET 0 0 0
          }
        }
      }
    }
  }
  JOINT HipRight
  {
    OFFSET 4.322138 0.524478 -7.697921
    CHANNELS 3 Zrotation Xrotation Yrotation
    JOINT KneeRight
    {
      OFFSET 9.389375 -38.986379 -1.089622
      CHANNELS 3 Zrotation Xrotation Yrotation
      JOINT AnkleRight
      {
        OFFSET 7.565730 -35.393012 6.560962
        CHANNELS 3 Zrotation Xrotation Yrotation
        JOINT FootRight
        {
          OFFSET -3.010324 -7.547582 -4.712588
          CHANNELS 3 Zrotation Xrotation Yrotation
          End Site
          {
            OFFSET 0 0 0
          }
        }
      }
    }
  }
}
MOTION
Frames: 6
Frame Time: 0.033333
28.047685 87.866073 364.824755 -0.000000 0.000000 40.689384 -0.000000 0.000000 -40.689384 -0.000000 0.000000 0.000000 -0.000000 0.000000 0.000000 0.000000 0.000000 0.000000 -0.000000 0.000000 0.000000 -0.000000 0.000000 0.000000 -0.000000 0.000000 0.000000 -0.000000 0.000000 0.000000 0.000000 0.000000 0.000000 0.000000 0.000000 0.000000 -0.000000 0.000000 0.000000 -0.000000 0.000000 0.000000 -0.000000 0.000000 0.000000 -0.000000 0.000000 0.000000 0.000000 0.000000 0.000000 0.000000 0.000000 0.000000 -0.000000 0.000000 -40.689384 -0.000000 0.000000 0.000000 -0.000000 0.000000 0.000000 0.000000 0.000000 0.000000 -0.000000 0.000000 -40.689384 -0.000000 0.000000 0.000000 -0.000000 0.000000 0.000000 0.000000 0.000000 0.000000
28.182117 87.703227 364.591082 0.113853 -0.017997 40.978235 -0.074152 0.088249 -40.978160 -0.000000 0.000000 0.000000 -0.000000 0.000000 0.000000 0.000000 0.000000 0.000000 -1.001963 -1.348459 -0.131387 -1.052063 2.918744 0.201714 -10.795720 -1.082912 -0.540789 2.813503 -1.299235 0.147846 0.000000 0.000000 0.000000 0.000000 0.000000 0.000000 -0.000000 0.000000 0.000000 1.082010 -2.455865 -0.334188 3.577439 0.332534 1.439455 -3.057250 3.166214 -1.269077 0.000000 0.000000 0.000000 0.000000 0.000000 0.000000 -0.074152 0.088249 -40.978160 -0.000000 0.000000 0.000000 0.852303 3.773623 -2.444959 0.000000 0.000000 0.000000 -0.074152 0.088249 -40.978160 -0.000000 0.000000 0.000000 -3.294488 2.976901 0.929855 0.000000 0.000000 0.000000
28.301812 87.558486 364.383173 0.221933 -0.054102 41.227340 -0.131261 0.186955 -41.227021 -0.000000 0.000000 0.000000 -0.294796 1.136926 0.439741 0.000000 0.000000 0.000000 -1.830570 -2.460966 -0.257170 -2.114819 5.531118 0.489222 -18.999777 -1.835931 -1.353036 5.041827 -2.347534 0.134326 0.000000 0.000000 0.000000 0.000000 0.000000 0.000000 -0.000000 0.000000 0.000000 1.966704 -4.508996 -0.574784 6.851103 0.986450 2.434693 -5.783451 5.455439 -2.267311 0.000000 0.000000 0.000000 0.000000 0.000000 0.000000 -1.328571 0.373639 -41.456009 1.020931 0.652773 0.229029 1.654612 6.568068 -4.344051 0.000000 0.000000 0.000000 -0.131261 0.186955 -41.227021 -0.000000 0.000000 0.000000 -6.534767 6.146131 1.876331 0.000000 0.000000 0.000000
28.406770 87.431851 364.201029 0.324368 -0.108239 41.433584 -0.171561 0.295799 -41.432835 -0.000000 0.000000 0.000000 -0.421639 1.524260 0.594737 0.000000 0.000000 0.000000 -2.490605 -3.346387 -0.368237 -3.113255 7.799562 0.821746 -24.434846 -2.289964 -2.164181 6.335811 -3.142487 0.054258 0.000000 0.000000 0.000000 0.000000 0.000000 0.000000 0.035715 -1.089605 -0.293404 2.661431 -5.089170 -0.501104 9.597179 2.050200 2.962740 -8.095225 6.694556 -2.954587 0.000000 0.000000 0.000000 0.000000 0.000000 0.000000 -1.859650 0.562239 -41.751409 1.436782 0.925368 0.319611 2.344721 8.502472 -5.734582 0.000000 0.000000 0.000000 -0.171561 0.295799 -41.432835 -0.000000 0.000000 0.000000 -9.664404 9.429751 2.835812 0.000000 0.000000 0.000000
28.496991 87.323320 364.044649 0.421274 -0.180363 41.594497 -0.195326 0.414549 -41.593127 -0.000000 0.000000 0.000000 -0.533310 1.790463 0.705454 0.000000 0.000000 0.000000 -2.986039 -4.012656 -0.457714 -3.974153 9.690881 1.153276 -27.478715 -2.505039 -2.792843 6.735448 -3.726321 -0.034526 0.000000 0.000000 0.000000 0.000000 0.000000 0.000000 0.048923 -1.389918 -0.375194 3.208744 -6.122488 -0.562558 11.649669 3.597745 3.016434 -9.928318 6.741962 -3.305020 0.000000 0.000000 0.000000 0.000000 0.000000 0.000000 -2.293067 0.746710 -41.983497 1.781442 1.156407 0.393651 2.888858 9.675132 -6.646680 0.000000 0.000000 0.000000 -1.118063 0.557582 -41.685281 1.590915 0.408564 0.218078 -13.417079 12.876738 3.692635 0.000000 0.000000 0.000000
28.572476 87.232895 363.914034 0.512759 -0.270462 41.708341 -0.202859 0.543064 -41.706170 -0.000000 0.000000 0.000000 -0.629071 1.935365 0.771281 0.000000 0.000000 0.000000 -3.319910 -4.466172 -0.520662 -4.632936 11.177989 1.438192 -28.533161 -2.512575 -3.126222 6.335015 -4.144799 -0.108517 0.000000 0.000000 0.000000 0.000000 0.000000 0.000000 0.063007 -1.659117 -0.449070 3.608375 -6.868962 -0.590295 12.886837 5.706546 2.604374 -11.216541 5.475790 -3.301767 0.000000 0.000000 0.000000 0.000000 0.000000 0.000000 -2.623409 0.923773 -42.150077 2.049884 1.342296 0.450880 3.271528 10.152630 -7.100605 0.000000 0.000000 0.000000 -1.280363 0.732354 -41.806997 1.858751 0.445119 0.243221 -16.303408 16.205625 4.639366 0.000000 0.000000 0.000000
